<?xml version="1.0" encoding="utf-8"?>
<svg xmlns="http://www.w3.org/2000/svg" fill="none" viewBox="0 0 621 418">
  <g opacity=".1" stroke="#87C5FF" stroke-width=".6">
    <path d="M267.8 16v370.5M315.7 16v370.5M363.5 16v370.5M411.3 16v370.5M459.2 16v370.5M507 16v370.5M554.8 16v370.5M602.7 16v370.5M620.5 33.8H250M620.5 81.7H250M620.5 129.5H250M620.5 177.3H250M620.5 225.2H250M620.5 273H250M620.5 320.8H250M620.5 368.7H250"/>
  </g>
  <g clip-path="url(#sec-section-a)">
    <g filter="url(#sec-section-b)" shape-rendering="crispEdges">
      <rect fill="url(#sec-section-c)" fill-opacity=".9" height="334" rx="4.4" width="207" x="30.1"/>
      <rect height="333.3" rx="4" stroke="#0E3458" stroke-width=".7" width="206.2" x="30.5" y=".4"/>
    </g>
    <path d="M149.5-6.3h294.2V334H149.5z" fill="#091B2D"/>
    <g filter="url(#sec-section-d)">
      <rect height="333.3" rx="4" shape-rendering="crispEdges" stroke="#0E3458" stroke-width=".7" width="412.3" x="30.4" y=".4"/>
    </g>
  </g>
  <path d="M174 58V48h6.6v1.5H176v2.8h4.4v1.4H176V58h-1.8Zm9.9.1c-1.7 0-2.6-1-2.6-2.8V51h1.8v4.2c0 .5 0 .9.3 1.1.2.2.5.4 1 .4.4 0 .8-.2 1-.5.4-.4.5-.8.5-1.3v-4h1.8v7H186v-1c-.5.7-1.2 1.1-2.1 1.1Zm5.3-.1v-7h1.7v1.1l1-.9a3 3 0 0 1 1.4-.3c1.6 0 2.4 1 2.4 2.9V58h-1.8v-4.1c0-.6 0-1-.3-1.2-.2-.3-.5-.4-1-.4-.4 0-.8.2-1.2.5-.3.3-.4.8-.4 1.3V58h-1.8Zm10.6.1a3 3 0 0 1-1.6-.4 3 3 0 0 1-1-1.2c-.3-.6-.4-1.2-.4-2 0-.7.1-1.4.4-1.9.2-.5.6-1 1-1.2a3 3 0 0 1 1.6-.5c.5 0 1 .1 1.4.4.4.2.6.5.8.8v-4h1.8V58h-1.7v-1.1c-.2.3-.5.7-.9.9-.4.2-.9.3-1.4.3Zm.5-1.3c.5 0 1-.2 1.3-.6.3-.4.5-1 .5-1.7s-.2-1.3-.5-1.7c-.3-.3-.8-.5-1.3-.5s-1 .2-1.3.5c-.3.4-.4 1-.4 1.7 0 .8.1 1.3.4 1.7.4.4.8.6 1.3.6Zm7.3 1.3c-.5 0-1 0-1.4-.2l-.9-.8a2 2 0 0 1-.3-1.2c0-.5.1-.9.4-1.2.3-.3.7-.5 1.3-.6l2.4-.2h.5v-.3c0-.5-.1-.8-.3-1-.2-.2-.6-.3-1-.3l-1.3.1-1.2.6-.5-1.2.8-.5a5.7 5.7 0 0 1 2.2-.4c1 0 1.7.3 2.2.7.5.5.8 1.2.8 2.2V58h-1.7v-1.1a2 2 0 0 1-.8 1l-1.2.2Zm.4-1.2c.4 0 .8-.1 1.1-.5.3-.3.5-.7.5-1.2V55h-.5c-.9 0-1.5 0-1.9.2-.3.2-.5.4-.5.8 0 .3.1.5.4.7.2.2.5.3.9.3Zm4.7 1.1v-7h1.8v1.1l.8-.8c.4-.3.8-.4 1.3-.4 1 0 1.7.5 2 1.4.3-.4.6-.8 1-1 .4-.2.9-.4 1.4-.4 1.5 0 2.3 1 2.3 2.9V58h-1.8v-4.2c0-.5 0-.9-.2-1.1-.2-.3-.5-.4-.9-.4-.5 0-.8.2-1 .5a2 2 0 0 0-.5 1.4V58h-1.8v-4.2c0-.5 0-.9-.2-1.1-.2-.3-.5-.4-.9-.4-.5 0-.8.2-1 .5a2 2 0 0 0-.5 1.4V58h-1.8Zm15.5.1c-.8 0-1.4-.1-2-.4-.6-.3-1-.7-1.3-1.2-.3-.6-.5-1.2-.5-2 0-.7.2-1.3.5-1.8.3-.6.7-1 1.2-1.3.5-.3 1.1-.5 1.8-.5 1 0 1.7.3 2.3 1 .6.6.9 1.4.9 2.5v.5h-5c.1 1.3.9 1.9 2.1 1.9.4 0 .8 0 1.2-.2l1-.5.6 1.1-1.3.7c-.5.2-1 .2-1.5.2Zm-.2-6c-.6 0-1 .2-1.3.5-.3.3-.5.8-.6 1.3h3.5c0-.6-.2-1-.5-1.3-.3-.3-.6-.5-1.1-.5ZM232 58v-7h1.8v1.1c.2-.3.5-.6 1-.9a3 3 0 0 1 1.3-.3c1.6 0 2.4 1 2.4 2.9V58H237v-4.1c0-.6-.2-1-.4-1.2-.2-.3-.5-.4-.9-.4-.5 0-1 .2-1.2.5-.3.3-.5.8-.5 1.3V58h-1.8Zm11.2.1c-1.9 0-2.8-.9-2.8-2.7v-3h-1.3v-1.3h1.3v-2h1.8v2h2v1.3h-2v3c0 .4 0 .7.3 1 .2.2.5.3 1 .3h.3l.5-.2.3 1.3-.7.3h-.7Zm4.2 0c-.5 0-1 0-1.4-.2l-1-.8a2 2 0 0 1-.2-1.2c0-.5.1-.9.4-1.2.2-.3.7-.5 1.3-.6l2.3-.2h.5v-.3c0-.5 0-.8-.3-1-.2-.2-.5-.3-1-.3l-1.2.1-1.2.6-.6-1.2 1-.5a5.7 5.7 0 0 1 2-.4c1 0 1.8.3 2.3.7.5.5.7 1.2.7 2.2V58h-1.6v-1.1a2 2 0 0 1-.8 1l-1.2.2Zm.3-1.2c.5 0 .9-.1 1.2-.5.3-.3.4-.7.4-1.2V55h-.4c-1 0-1.5 0-1.9.2-.3.2-.5.4-.5.8 0 .3.1.5.3.7.2.2.5.3 1 .3Zm7.2 1.2c-.8 0-1.4-.2-1.8-.6-.4-.5-.6-1.1-.6-2V48h1.8v7.4c0 .9.3 1.3 1 1.3a3.4 3.4 0 0 0 .6 0V58l-1 .1Zm4.2 0c-.6 0-1.1 0-1.6-.2-.5-.1-1-.3-1.3-.6l.5-1.1a4.4 4.4 0 0 0 2.4.7c.5 0 .8 0 1-.2.3-.2.4-.4.4-.7 0-.4-.3-.6-.9-.7l-1.4-.3c-1.2-.2-1.8-.8-1.8-1.9 0-.4.1-.8.4-1.1.2-.4.6-.6 1-.8a4.7 4.7 0 0 1 3 0c.4 0 .8.3 1.1.6l-.5 1.1-1-.5c-.3-.2-.7-.2-1-.2-.5 0-.9 0-1 .2-.3.2-.4.4-.4.7 0 .4.3.6.8.7l1.4.3c.6.1 1.1.3 1.4.6.3.3.5.7.5 1.2a2 2 0 0 1-.8 1.7c-.6.3-1.3.5-2.2.5Zm10.7 0c-.7 0-1.3-.1-1.9-.4a3 3 0 0 1-1.2-1.2 4 4 0 0 1-.4-2c0-.7.1-1.3.4-1.9.3-.5.7-1 1.2-1.2.6-.3 1.2-.5 2-.5.6 0 1.2.2 1.8.5.5.3 1 .7 1.2 1.2.3.6.4 1.2.4 2a4 4 0 0 1-.4 1.9 3 3 0 0 1-1.2 1.2c-.6.3-1.2.4-1.9.4Zm0-1.3c.5 0 1-.2 1.3-.6.3-.4.5-1 .5-1.7s-.2-1.3-.5-1.7c-.3-.3-.8-.5-1.3-.5s-1 .2-1.3.5c-.3.4-.5 1-.5 1.7 0 .8.2 1.3.5 1.7.4.4.8.6 1.3.6Zm5 1.2v-5.6h-1.3v-1.3h1.4c0-1 .2-1.8.7-2.3.6-.5 1.4-.7 2.4-.8h.7l.1 1.2h-.6c-.6.1-1 .3-1.2.5-.2.2-.4.6-.4 1v.4h2v1.3h-2V58H275Zm8 0V48h1.6l3.6 6.5 3.5-6.5h1.5v10h-1.7v-6.7l-2.8 5.2h-1.1l-2.9-5.2V58H283Zm14.1.1c-.5 0-1 0-1.3-.2l-1-.8a2 2 0 0 1-.3-1.2c0-.5.2-.9.4-1.2.3-.3.7-.5 1.3-.6l2.4-.2h.5v-.3c0-.5 0-.8-.3-1-.2-.2-.6-.3-1-.3a5.1 5.1 0 0 0-2.4.7l-.6-1.2.9-.5a5.7 5.7 0 0 1 2.1-.4c1 0 1.8.3 2.3.7.5.5.7 1.2.7 2.2V58H299v-1.1a2 2 0 0 1-.7 1l-1.3.2Zm.4-1.2c.5 0 .8-.1 1.1-.5.4-.3.5-.7.5-1.2V55h-.5c-.9 0-1.5 0-1.8.2-.4.2-.5.4-.5.8 0 .3 0 .5.3.7.2.2.5.3.9.3Zm8 1.2a4 4 0 0 1-2-.4c-.5-.3-.9-.7-1.2-1.3a4 4 0 0 1-.4-1.9c0-.7.1-1.4.4-1.9.3-.5.7-1 1.3-1.2a4.2 4.2 0 0 1 3.2-.2c.4 0 .8.3 1 .5l-.5 1.3-.8-.5-.9-.2c-.6 0-1 .2-1.4.6-.3.4-.5 1-.5 1.6 0 .7.2 1.3.5 1.7.3.4.8.6 1.4.6a2.6 2.6 0 0 0 1.7-.7l.6 1.2c-.3.3-.7.5-1.1.6-.5.2-1 .2-1.3.2Zm3.1-.1V48h1.8v4c.2-.3.5-.6 1-.8a3 3 0 0 1 1.2-.3c1.7 0 2.5 1 2.5 2.9V58h-1.8v-4.1c0-.6 0-1-.3-1.2-.2-.3-.5-.4-1-.4s-.9.2-1.2.5c-.3.3-.4.8-.4 1.3V58h-1.8Zm7.8-8.4v-1.7h2v1.7h-2Zm.1 8.4v-7h1.8v7h-1.8Zm3.3 0v-7h1.7v1.1l1-.9a3 3 0 0 1 1.3-.3c1.7 0 2.5 1 2.5 2.9V58h-1.8v-4.1c0-.6 0-1-.3-1.2-.2-.3-.5-.4-1-.4-.4 0-.9.2-1.2.5-.3.3-.4.8-.4 1.3V58h-1.8Zm11.4.1c-.8 0-1.5-.1-2-.4-.6-.3-1-.7-1.4-1.2-.3-.6-.4-1.2-.4-2a3.3 3.3 0 0 1 1.7-3.1c.5-.3 1-.5 1.7-.5 1 0 1.8.3 2.4 1 .5.6.8 1.4.8 2.5v.5h-5c.2 1.3 1 1.9 2.2 1.9.4 0 .8 0 1.2-.2l1-.5.5 1.1c-.3.3-.7.5-1.2.7-.5.2-1 .2-1.5.2Zm-.3-6c-.5 0-1 .2-1.2.5-.4.3-.6.8-.6 1.3h3.5c0-.6-.2-1-.5-1.3-.3-.3-.7-.5-1.2-.5Zm7.8 5.9V48h1.9v8.5h4.7V58h-6.6Zm10.8.1c-.8 0-1.4-.1-2-.4-.6-.3-1-.7-1.3-1.2-.3-.6-.5-1.2-.5-2 0-.7.2-1.3.5-1.8.3-.6.7-1 1.2-1.3.5-.3 1.1-.5 1.8-.5 1 0 1.8.3 2.3 1 .6.6.9 1.4.9 2.5v.5h-5c.2 1.3.9 1.9 2.2 1.9.3 0 .7 0 1.1-.2l1-.5.6 1.1-1.3.7c-.5.2-1 .2-1.5.2Zm-.2-6c-.5 0-1 .2-1.3.5-.3.3-.5.8-.6 1.3h3.5c0-.6-.2-1-.5-1.3-.2-.3-.6-.5-1.1-.5Zm6.4 6c-.5 0-1 0-1.3-.2l-1-.8a2 2 0 0 1-.3-1.2c0-.5.2-.9.4-1.2.3-.3.7-.5 1.3-.6l2.4-.2h.5v-.3c0-.5 0-.8-.3-1-.2-.2-.6-.3-1-.3a5.1 5.1 0 0 0-2.4.7l-.6-1.2.9-.5a5.7 5.7 0 0 1 2.1-.4c1 0 1.8.3 2.3.7.5.5.7 1.2.7 2.2V58h-1.7v-1.1a2 2 0 0 1-.7 1l-1.3.2Zm.4-1.2c.5 0 .8-.1 1.1-.5.4-.3.5-.7.5-1.2V55h-.5c-.9 0-1.5 0-1.8.2-.4.2-.5.4-.5.8 0 .3 0 .5.3.7.2.2.5.3.9.3Zm4.8 1.1v-7h1.7v1.3c.3-.8 1-1.3 2.2-1.4h.5l.1 1.5h-1c-1.2.2-1.7.8-1.7 1.9V58h-1.8Zm5.2 0v-7h1.7v1.1c.2-.3.5-.6 1-.9a3 3 0 0 1 1.3-.3c1.6 0 2.4 1 2.4 2.9V58h-1.7v-4.1c0-.6-.1-1-.3-1.2-.2-.3-.5-.4-1-.4s-.9.2-1.2.5c-.3.3-.5.8-.5 1.3V58H366Zm7.8-8.4v-1.7h2v1.7h-2Zm.1 8.4v-7h1.8v7h-1.8Zm3.3 0v-7h1.7v1.1l1-.9a3 3 0 0 1 1.3-.3c1.6 0 2.5 1 2.5 2.9V58h-1.8v-4.1c0-.6-.1-1-.3-1.2-.2-.3-.5-.4-1-.4s-.9.2-1.2.5c-.3.3-.5.8-.5 1.3V58h-1.7Zm11.2 2.7a7 7 0 0 1-1.9-.2l-1.4-.7.5-1.2 1.3.5c.4.2.9.2 1.3.2 1.3 0 2-.6 2-1.8v-1c-.3.5-.6.8-1 1-.4.2-.9.3-1.4.3a3 3 0 0 1-1.6-.4 3 3 0 0 1-1-1.2 4 4 0 0 1-.5-1.8c0-.7.2-1.3.4-1.8.3-.5.6-1 1.1-1.2a3 3 0 0 1 1.6-.5c.5 0 1 .1 1.4.4.4.2.7.5 1 1V51h1.6v6.2c0 1.1-.3 2-.9 2.5-.6.6-1.4.9-2.5.9Zm0-4.2c.5 0 .9-.2 1.2-.6.3-.4.5-.9.5-1.5 0-.7-.2-1.2-.5-1.6-.3-.3-.7-.5-1.3-.5-.5 0-1 .2-1.3.5-.3.4-.5 1-.5 1.6 0 .6.2 1.1.5 1.5.3.4.8.6 1.3.6ZM173.9 170v-8h3.5a3 3 0 0 1 2 .6c.5.4.8 1 .8 1.7 0 .6-.2 1.1-.5 1.5-.3.4-.8.7-1.4.8.4.2.8.4 1 1l1.4 2.4H179l-1.4-2.6-.5-.5-.7-.1h-1v3.2h-1.5Zm1.4-4.3h1.8c1.1 0 1.6-.5 1.6-1.3 0-.9-.5-1.3-1.6-1.3h-1.8v2.6Zm8 4.4c-1.3 0-2-.8-2-2.3v-3.4h1.4v3.4c0 .4.1.7.3 1l.7.2c.4 0 .7-.1 1-.4.2-.3.3-.6.3-1v-3.2h1.5v5.6H185v-.8c-.4.6-1 1-1.7 1Zm4.4-.1v-5.6h1.4v.9c.2-.4.4-.6.8-.8l1-.2c1.4 0 2 .7 2 2.3v3.4h-1.4v-3.3c0-.5 0-.8-.2-1-.2-.2-.5-.3-.8-.3-.4 0-.8.1-1 .4-.3.3-.4.6-.4 1v3.2h-1.4Zm6.4 0v-5.6h1.4v.9c.2-.4.5-.6.8-.8l1-.2c1.4 0 2 .7 2 2.3v3.4H198v-3.3c0-.5 0-.8-.2-1-.2-.2-.4-.3-.8-.3s-.7.1-1 .4c-.2.3-.4.6-.4 1v3.2h-1.4Zm6.4-6.8v-1.4h1.6v1.4h-1.6Zm0 6.8v-5.6h1.5v5.6h-1.5Zm2.7 0v-5.6h1.4v.9c.2-.4.4-.6.8-.8l1-.2c1.4 0 2 .7 2 2.3v3.4H207v-3.3c0-.5 0-.8-.2-1-.2-.2-.5-.3-.8-.3-.4 0-.8.1-1 .4-.3.3-.4.6-.4 1v3.2h-1.4Zm9 2.2c-.5 0-1 0-1.4-.2l-1.2-.5.4-1 1 .4 1.1.2c1 0 1.6-.5 1.6-1.5v-.8c-.2.4-.5.6-.8.8-.3.2-.7.3-1 .3-.6 0-1-.2-1.4-.4-.4-.2-.7-.5-.9-1-.2-.4-.3-.9-.3-1.4 0-.6.1-1 .3-1.5a2.3 2.3 0 0 1 2.2-1.3c.4 0 .8 0 1.1.3.4.2.6.4.8.7v-.9h1.4v5c0 1-.3 1.6-.8 2-.5.5-1.2.8-2 .8Zm0-3.4c.4 0 .8-.2 1-.5.3-.3.4-.7.4-1.2 0-.6 0-1-.3-1.3-.3-.3-.7-.4-1.1-.4-.4 0-.8.1-1 .4-.3.3-.4.7-.4 1.3 0 .5 0 1 .3 1.2.3.3.7.5 1.1.5Zm6.1 1.3v-1.2h.7c.7 0 1-.5 1-1.2V162h1.5v5.8c0 1.5-.7 2.3-2.2 2.4h-1Zm6.6 0c-1.4 0-2-.8-2-2.3v-3.4h1.4v3.4c0 .4 0 .7.2 1l.8.2c.4 0 .7-.1 1-.4.2-.3.3-.6.3-1v-3.2h1.4v5.6h-1.4v-.8c-.4.6-1 1-1.7 1Zm4.3 2v-7.7h1.4v.9c.2-.3.4-.6.8-.7.3-.2.7-.3 1-.3a2.3 2.3 0 0 1 2.2 1.3c.2.5.3 1 .3 1.6 0 .6 0 1.1-.3 1.6l-.8 1c-.4.2-.8.3-1.3.3-.4 0-.8 0-1.1-.2-.3-.2-.6-.4-.7-.7v2.9h-1.5Zm2.9-3c.4 0 .7-.2 1-.5.3-.3.4-.8.4-1.4 0-.6-.1-1-.4-1.4-.3-.3-.6-.4-1-.4-.5 0-.8.1-1 .4-.3.3-.5.8-.5 1.4 0 .6.2 1 .4 1.4.3.3.6.4 1 .4Zm4.1 3 1-2.3-2.3-5.4h1.5l1.6 4 1.6-4h1.5l-3.4 7.7h-1.5Zm8-2c-1.5 0-2.2-.7-2.2-2.2v-2.4h-1v-1.1h1v-1.7h1.4v1.7h1.7v1h-1.7v2.4c0 .4.1.7.3.9l.7.2h.7l.2 1-.5.1-.6.1Zm4.3 0c-.7 0-1.2-.1-1.7-.3-.4-.3-.8-.6-1-1-.3-.5-.4-1-.4-1.6 0-.6.1-1 .4-1.5.2-.5.5-.8 1-1 .4-.3.9-.4 1.4-.4.8 0 1.4.2 1.9.7.5.5.7 1.2.7 2.1v.4h-4c0 1 .7 1.5 1.7 1.5l1-.1.8-.5.4 1a3 3 0 0 1-1 .5 4 4 0 0 1-1.2.2Zm-.2-4.8c-.5 0-.8 0-1 .3-.3.3-.5.7-.5 1.1h2.8c0-.5-.2-.8-.4-1-.2-.3-.5-.4-1-.4Zm3.3 4.7v-5.6h1.4v1c.3-.7 1-1 1.8-1.1h.4l.1 1.2h-.8c-1 .1-1.4.6-1.4 1.5v3h-1.5Zm9.6.1a3 3 0 0 1-1.5-.3l-1-1c-.2-.5-.3-1-.3-1.6 0-.6 0-1.1.3-1.6l1-1a3 3 0 0 1 1.5-.3c.6 0 1.1.1 1.5.3.5.3.8.6 1 1 .3.5.4 1 .4 1.6 0 .6-.1 1.1-.4 1.6-.2.4-.5.7-1 1a3 3 0 0 1-1.5.3Zm0-1c.5 0 .8-.2 1-.5.3-.3.4-.8.4-1.4 0-.6 0-1-.3-1.4-.3-.3-.6-.4-1-.4-.5 0-.8.1-1.1.4-.3.3-.4.8-.4 1.4 0 .6.1 1 .4 1.4.3.3.6.4 1 .4Zm3.8.9v-5.6h1.4v.9c.2-.4.4-.6.8-.8l1-.2c1.4 0 2 .7 2 2.3v3.4h-1.4v-3.3c0-.5 0-.8-.2-1-.2-.2-.5-.3-.8-.3-.4 0-.8.1-1 .4-.2.3-.4.6-.4 1v3.2H265Zm9.4 0v-8h5.4v1h-4v2.3h3.7v1.2h-3.7v2.3h4v1.2h-5.4Zm10.3.1c-.9 0-1.6-.2-2.2-.5-.6-.3-1-.8-1.4-1.4-.3-.7-.4-1.4-.4-2.2 0-.9.1-1.6.4-2.2.4-.7.8-1.1 1.4-1.5.6-.3 1.3-.5 2.2-.5.5 0 1 0 1.5.3.5.1 1 .4 1.2.7l-.5 1.1a3.5 3.5 0 0 0-2.2-.8c-.8 0-1.4.3-1.8.8-.5.4-.7 1.1-.7 2 0 1 .2 1.7.7 2.2.4.5 1 .7 1.8.7.4 0 .8 0 1.2-.2.4-.1.7-.3 1-.6l.5 1.1c-.3.3-.7.6-1.2.8l-1.5.2Zm3.8-.1v-1l2.6-2.9.7-1 .3-.9c0-.8-.5-1.2-1.4-1.2a3 3 0 0 0-2 .9l-.6-1.1c.4-.3.8-.6 1.2-.7l1.5-.3c.9 0 1.6.2 2 .6.5.4.7 1 .7 1.7 0 .5-.1 1-.3 1.4-.3.4-.6 1-1.1 1.4l-1.8 1.9h3.5v1.2h-5.3Z" fill="#B0B0B7"/>
  <rect fill="#0E3458" height="8.4" rx="4.2" width="247.1" x="172.5" y="73.3"/>
  <rect fill="#0E3458" height="8.4" rx="4.2" width="247.1" x="172.5" y="184.3"/>
  <rect fill="#0E3458" height="8.4" rx="4.2" width="247.1" x="172.5" y="89"/>
  <rect fill="#0E3458" height="8.4" rx="4.2" width="247.1" x="172.5" y="200"/>
  <rect fill="#0E3458" height="8.4" rx="4.2" width="247.1" x="172.5" y="104.7"/>
  <rect fill="#0E3458" height="8.4" rx="4.2" width="247.1" x="172.5" y="215.7"/>
  <rect fill="#0E3458" height="7.3" rx="3.7" width="126.7" x="172.5" y="121.5"/>
  <rect fill="#0E3458" height="7.3" rx="3.7" width="126.7" x="172.5" y="232.4"/>
  <path d="M172.5 71.2h138.2v12.6H172.5z" fill="#2078CC" opacity=".4"/>
  <path d="M307.6 69.6h6.3M307.6 85.9h6.3M310.7 69.1v16.8" stroke="#53ACFF"/>
  <path d="M47.6 11.9h-6.1L44.3 9l-.7-.7-4 4 4 4 .7-.7-2.8-2.8h6v-1Z" fill="#185692"/>
  <path clip-rule="evenodd" d="M432.9 14v.4l.8.6v.3l-.7 1.3-.2.1-1-.4a3 3 0 0 1-.7.4l-.2 1c0 .2 0 .2-.2.2h-1.5l-.2-.1-.2-1-.6-.5-1 .4h-.2l-.8-1.4V15l.9-.6a3 3 0 0 1 0-.8l-.9-.6v-.3l.8-1.3.1-.1h.1l1 .4.6-.4.2-1c0-.1 0-.2.2-.2h1.5c.1 0 .2 0 .2.2l.2 1 .6.4 1-.4h.3l.7 1.4v.3l-.8.6v.4Zm-.8 0v-.7l.3-.3.4-.3-.3-.5-.5.2-.4.2-.3-.3-.5-.3-.4-.1-.1-.5V11h-.6v.5l-.2.5-.4.1-.5.3-.3.3-.4-.2-.5-.2-.3.5.4.3.4.3v.4a3 3 0 0 0 0 .6v.5l-.4.2-.4.4.3.4.5-.2.4-.1.4.2.4.3.4.2.1.4v.5h.6l.1-.5v-.4l.5-.2.5-.3.3-.2.4.1.5.2.3-.5-.4-.3-.4-.3v-.4l.1-.3Zm-2.1-1.5a1.6 1.6 0 1 0 0 3 1.6 1.6 0 0 0 0-3Zm-.8 1.5c0 .4.3.8.8.8a.8.8 0 0 0 0-1.6c-.5 0-.8.4-.8.8ZM417.7 10.9h-.4V10h-.8v.8h-3V10h-.9v.8h-.4c-.4 0-.7.3-.7.8V17c0 .5.3.8.7.8h5.5c.4 0 .8-.3.8-.8v-5.4c0-.5-.4-.8-.8-.8Zm0 6.2h-5.5v-3.9h5.5v4Zm-5.5-5.4v.8h5.5v-.8h-5.5Zm.8 2.3h4v.8h-4V14Zm2.8 1.6H413v.8h2.8v-.8Z" fill="#185692" fill-rule="evenodd"/>
  <g filter="url(#sec-section-e)">
    <rect fill="#0E3458" height="5.2" rx="2.6" width="112" x="5" y="75.4"/>
    <rect fill="#88FF63" height="5.2" rx="2.6" width="69.1" x="5" y="75.4"/>
  </g>
  <circle cx="9.7" cy="129.3" r="4.2" stroke="#185692"/>
  <circle cx="9.7" cy="148.2" r="4.2" stroke="#185692"/>
  <circle cx="9.7" cy="167" r="4.2" stroke="#185692"/>
  <circle cx="9.7" cy="185.8" r="4.2" stroke="#185692"/>
  <rect fill="#185692" height="5.2" rx="2.6" width="95.3" x="21.8" y="107.8"/>
  <rect fill="#185692" height="5.2" rx="2.6" width="95.3" x="21.8" y="126.7"/>
  <rect fill="#185692" height="5.2" rx="2.6" width="95.3" x="21.8" y="145.5"/>
  <rect fill="#185692" height="5.2" rx="2.6" width="95.3" x="21.8" y="164.4"/>
  <rect fill="#185692" height="5.2" rx="2.6" width="95.3" x="21.8" y="183.2"/>
  <g filter="url(#sec-section-f)">
    <circle cx="9.7" cy="110.5" fill="#88FF63" r="4.7"/>
    <circle cx="9.7" cy="110.5" r="4.2" stroke="#88FF63"/>
  </g>
  <g filter="url(#sec-section-g)">
    <g clip-path="url(#sec-section-h)">
      <g filter="url(#sec-section-i)" shape-rendering="crispEdges">
        <rect fill="url(#sec-section-j)" height="153.1" rx="4.3" width="119.4" x="413.3" y="143.4"/>
        <rect height="152.3" rx="3.9" stroke="#0E3458" stroke-width=".7" width="118.7" x="413.7" y="143.7"/>
      </g>
      <path d="M396 131.8h154v93.4H396z" fill="#21598C"/>
    </g>
  </g>
  <g filter="url(#sec-section-k)">
    <g clip-path="url(#sec-section-l)">
      <g filter="url(#sec-section-m)" shape-rendering="crispEdges">
        <rect fill="url(#sec-section-n)" height="166.5" rx="4.6" width="129.8" x="393.4" y="137.2"/>
        <rect height="165.7" rx="4.2" stroke="#0E3458" stroke-width=".8" width="129.1" x="393.8" y="137.5"/>
      </g>
      <path d="M393.2 124.7H523v93.2H393.2z" fill="#2078CC"/>
      <path d="m507 146.5-3.6-2v4l3.5-2Zm-81.9.3h78.7v-.7H425v.7Z" fill="#185692"/>
      <path d="m425.1 146.5-3.5-2v4l3.5-2Zm-15.8.3H422v-.7h-12.7v.7ZM507 171.2l-3.6-2v4l3.5-2Zm-81.9.4h78.7v-.7H425v.7Z" fill="#185692"/>
      <path d="m425.1 171.2-3.5-2v4l3.5-2Zm-15.8.4H422v-.7h-12.7v.7Z" fill="#185692"/>
      <path d="m432.1 146.5 26 24.7M432.1 146.5l26 49.5M458 146.5 432.2 196M432.1 171.2l26 24.8M458 146.5l-25.9 24.7M458 171.2 432.2 196M458.1 146.5l26 24.7M458.1 146.5l26 49.5M484 146.5 458.1 196M458.1 171.2l26 24.8M484 146.5l-25.9 24.7M484 171.2 458.1 196" stroke="#185692" stroke-width=".7"/>
      <path d="m507 196-3.6-2v4l3.5-2Zm-81.9.3h78.7v-.7H425v.7Z" fill="#185692"/>
      <path d="m425.1 196-3.5-2v4l3.5-2Zm-15.8.3H422v-.7h-12.7v.7Z" fill="#185692"/>
      <circle cx="432.1" cy="146.5" fill="#3C91E1" r="7"/>
      <circle cx="458.1" cy="146.5" fill="#3C91E1" r="7"/>
      <circle cx="484" cy="146.5" fill="#3C91E1" r="7"/>
      <circle cx="432.1" cy="171.2" fill="#3C91E1" r="7"/>
      <circle cx="458.1" cy="171.2" fill="#3C91E1" r="7"/>
      <circle cx="484" cy="171.2" fill="#3C91E1" r="7"/>
      <circle cx="432.1" cy="196" fill="#3C91E1" r="7"/>
      <circle cx="458.1" cy="196" fill="#3C91E1" r="7"/>
      <circle cx="484" cy="196" fill="#3C91E1" r="7"/>
    </g>
  </g>
  <g filter="url(#sec-section-o)">
    <circle cx="520.7" cy="269.6" fill="#0E3458" r="18.3"/>
    <circle cx="520.7" cy="269.6" r="17.8" stroke="#0E3458"/>
  </g>
  <path d="M526.4 260.6h-11.9a3 3 0 0 0-3 3v11.8a3 3 0 0 0 3 3h11.9a3 3 0 0 0 3-3v-11.8a3 3 0 0 0-3-3Zm1.3 14.5a1.6 1.6 0 0 1-1.7 1.6H515a1.6 1.6 0 0 1-1.6-1.6v-7.3h14.4v7.3Zm0-9h-14.4V264a1.6 1.6 0 0 1 1.6-1.6H526a1.6 1.6 0 0 1 1.7 1.6v2.2Z" fill="#2078CC"/>
  <path d="M516.2 263.4h-1.5l-.1.1v1.5l.1.1h1.5v-1.6ZM518.8 263.4h-1.5l-.1.1v1.6h1.6v-1.6ZM521.3 263.4H520l-.1.1v1.6h1.5l.1-.1v-1.5ZM525.4 273.7h-4.8l-.1.2v1.4l.1.1h4.8l.2-.1v-1.4l-.2-.2ZM516.4 275.3a.1.1 0 0 0 .2 0l2.8-3v-.2l-2.6-3a.1.1 0 0 0-.1-.1h-.1l-1 .8a.1.1 0 0 0 0 .2l1.8 2a.2.2 0 0 1 0 .3l-1.9 2v.2l1 .8Z" fill="#2078CC"/>
  <path d="M404.7 239.3v-7.4h4.8v1h-3.4v2.1h3.2v1h-3.2v3.3h-1.4Zm7.2 0c-1.3 0-2-.6-2-2V234h1.4v3.2c0 .3 0 .6.2.8l.7.2c.3 0 .6 0 .9-.3.2-.3.3-.6.3-1v-2.9h1.3v5.2h-1.3v-.8c-.3.6-.8.9-1.5.9Zm3.8 0V234h1.3v.8c.2-.3.4-.5.7-.6.3-.2.6-.3 1-.3 1.2 0 1.8.7 1.8 2.1v3.2h-1.3v-3.1c0-.4 0-.7-.2-.9-.2-.2-.4-.2-.7-.2-.4 0-.7 0-1 .3-.2.3-.3.6-.3 1v2.9h-1.3Zm7.8 0c-.5 0-.9 0-1.2-.3-.3-.2-.6-.5-.8-.9-.2-.4-.3-.9-.3-1.4 0-.6.1-1 .3-1.4l.8-1c.3-.2.7-.3 1.2-.3.3 0 .7.1 1 .3.3.1.5.3.6.6v-3h1.3v7.4h-1.3v-.9c0 .3-.3.5-.6.7a2 2 0 0 1-1 .3Zm.3-1c.4 0 .7 0 1-.4.2-.2.3-.7.3-1.2 0-.6 0-1-.3-1.3-.3-.2-.6-.4-1-.4-.3 0-.7.2-.9.4-.2.3-.4.7-.4 1.3 0 .5.2 1 .4 1.2.2.3.6.5 1 .5Zm5.3 1c-.3 0-.7 0-1-.2-.3-.1-.5-.3-.6-.5l-.3-.9.3-.9c.2-.2.5-.3 1-.4l1.7-.2h.4v-.2c0-.4 0-.6-.2-.8l-.8-.2a3.8 3.8 0 0 0-1.8.5l-.4-.8.7-.4a4.2 4.2 0 0 1 1.5-.3c.8 0 1.3.2 1.7.6.4.3.5.8.5 1.6v3h-1.2v-.8l-.5.7c-.3.2-.6.3-1 .3Zm.3-.8c.3 0 .6-.2.9-.4.2-.2.3-.5.3-.9v-.2h-.4a4 4 0 0 0-1.3.1c-.3.1-.4.3-.4.6 0 .2 0 .4.2.5.2.2.4.3.7.3Zm3.5.8V234h1.2v.8c.2-.3.4-.5.7-.6.2-.2.6-.3 1-.3.7 0 1.2.4 1.4 1l.7-.7a2 2 0 0 1 1-.3c1.2 0 1.8.7 1.8 2.1v3.2h-1.3v-3.1l-.2-.9c-.2-.2-.4-.2-.7-.2a1 1 0 0 0-.8.3c-.2.3-.3.6-.3 1v2.9h-1.3v-3.1c0-.4 0-.7-.2-.9-.1-.2-.3-.2-.6-.2a1 1 0 0 0-.8.3c-.2.3-.3.6-.3 1v2.9h-1.3Zm11.3 0c-.6 0-1 0-1.5-.3-.4-.2-.7-.5-1-.9-.2-.4-.3-.9-.3-1.4 0-.5.1-1 .3-1.4.2-.4.5-.7 1-1 .3-.2.8-.3 1.3-.3.7 0 1.3.3 1.7.7.4.5.6 1.1.6 1.9v.4h-3.7c.1.9.7 1.4 1.6 1.4.3 0 .6 0 .9-.2.3 0 .5-.2.8-.4l.3.9c-.2.2-.5.4-.9.5l-1.1.2Zm-.2-4.4c-.4 0-.7.1-1 .4-.2.2-.3.5-.4 1h2.6c0-.5-.1-.8-.3-1a1 1 0 0 0-.9-.4Zm3 4.4V234h1.3v.8c.2-.3.4-.5.7-.6.3-.2.6-.3 1-.3 1.2 0 1.8.7 1.8 2.1v3.2h-1.3v-3.1c0-.4 0-.7-.2-.9-.2-.2-.4-.2-.7-.2-.4 0-.7 0-1 .3-.2.3-.3.6-.3 1v2.9H447Zm8.1 0c-1.3 0-2-.6-2-2v-2.2h-1v-1h1v-1.5h1.3v1.5h1.6v1h-1.6v2.2c0 .3 0 .6.2.7.2.2.4.3.7.3h.3l.4-.1.2 1h-.5l-.6.2Zm3 0c-.3 0-.7 0-1-.2l-.6-.5-.3-.9.3-.9c.2-.2.5-.3 1-.4l1.8-.2h.3v-.2c0-.4 0-.6-.2-.8l-.8-.2a3.8 3.8 0 0 0-1.8.5l-.4-.8.7-.4a4.2 4.2 0 0 1 1.6-.3c.7 0 1.3.2 1.6.6.4.3.6.8.6 1.6v3h-1.3v-.8c0 .3-.3.5-.5.7-.3.2-.6.3-1 .3Zm.3-.8c.4 0 .6-.2.9-.4.2-.2.3-.5.3-.9v-.2h-.3a4 4 0 0 0-1.4.1c-.3.1-.4.3-.4.6 0 .2 0 .4.3.5.1.2.3.3.6.3Zm5.2.9c-.6 0-1-.2-1.3-.5-.3-.4-.4-.9-.4-1.5v-5.5h1.3v5.4c0 .7.2 1 .8 1a2.5 2.5 0 0 0 .4 0v1h-.8Zm3 0-1.1-.2-1-.5.4-.8a3.2 3.2 0 0 0 1.8.5l.7-.1c.2-.2.3-.3.3-.5 0-.3-.2-.5-.7-.6l-1-.2c-.9-.1-1.3-.6-1.3-1.3 0-.4 0-.7.2-1l.8-.5a3.5 3.5 0 0 1 2.2 0c.3 0 .6.2.8.4l-.3.9-.8-.4-.8-.2-.7.2c-.2.1-.3.3-.3.5 0 .3.2.5.6.6l1 .2c.5 0 .9.2 1.1.4.2.2.4.5.4 1 0 .4-.2.8-.6 1.1-.4.3-1 .5-1.6.5Zm7.8 0c-.5 0-1-.2-1.4-.4-.4-.2-.7-.5-.9-.9a3 3 0 0 1-.3-1.4c0-.6 0-1 .3-1.4.2-.4.5-.7 1-1 .3-.2.8-.3 1.3-.3s1 .1 1.4.4c.4.2.7.5.9.9.2.4.3.8.3 1.4 0 .5-.1 1-.3 1.4-.2.4-.5.7-1 1-.3.1-.8.3-1.3.3Zm0-1c.4 0 .7-.2 1-.5.2-.2.3-.7.3-1.2 0-.6-.1-1-.4-1.3-.2-.2-.5-.4-1-.4-.3 0-.6.2-.9.4-.2.3-.3.7-.3 1.3 0 .5.1 1 .3 1.2.3.3.6.5 1 .5Zm3.6.9V235h-1v-1h1c0-.7.2-1.3.6-1.6.4-.4 1-.6 1.8-.7h.5v1h-.4c-.4 0-.7.1-.9.3-.2.2-.3.5-.3.8v.2h1.4v1h-1.3v4.2H478Zm-73.3 14v-7.4h1.2l2.6 4.8 2.6-4.8h1v7.4H411v-5l-2.1 3.8h-.8l-2.1-3.8v5h-1.3Zm10.3 0c-.3 0-.7 0-1-.2-.3-.1-.5-.3-.6-.5l-.3-.9.3-.9c.2-.2.5-.3 1-.4l1.7-.2h.4v-.2c0-.4 0-.6-.2-.8l-.8-.2a3.7 3.7 0 0 0-1.8.5l-.4-.8.7-.4a4.2 4.2 0 0 1 1.5-.3c.8 0 1.3.2 1.7.6.4.3.5.8.5 1.6v3h-1.2v-.8l-.5.7c-.3.2-.6.3-1 .3Zm.3-.8c.3 0 .6-.2.8-.4.3-.2.4-.5.4-.9v-.2h-.4a4 4 0 0 0-1.3.1c-.3.1-.4.3-.4.6 0 .2 0 .4.2.5.2.2.4.3.7.3Zm5.8.9c-.5 0-1-.2-1.4-.4-.4-.2-.7-.5-1-1a3 3 0 0 1-.3-1.3c0-.6.2-1 .4-1.4.2-.4.5-.7.9-1 .4-.2.9-.3 1.4-.3.3 0 .6 0 1 .2.3 0 .6.2.8.4l-.4 1-.6-.4-.7-.2c-.4 0-.8.2-1 .5-.3.3-.4.7-.4 1.2s.1.9.4 1.2c.2.3.6.4 1 .4a1.9 1.9 0 0 0 1.3-.5l.4 1-.8.4-1 .2Zm2.2-.1v-7.4h1.3v3l.7-.7 1-.2c1.2 0 1.8.7 1.8 2.1v3.2h-1.3v-3.1c0-.4 0-.7-.2-.9-.2-.2-.4-.2-.7-.2-.4 0-.7 0-1 .3-.2.3-.3.6-.3 1v2.9h-1.3Zm5.7-6.3v-1.2h1.5v1.2H429Zm.1 6.3V248h1.3v5.2h-1.3Zm2.3 0V248h1.3v.8c.2-.3.4-.5.7-.6.3-.2.7-.3 1-.3 1.2 0 1.8.7 1.8 2.1v3.2H435v-3.1c0-.4 0-.7-.2-.9-.2-.2-.4-.2-.7-.2-.4 0-.7 0-1 .3-.1.3-.3.6-.3 1v2.9h-1.3Zm8.3 0c-.5 0-1 0-1.5-.3-.4-.2-.7-.5-1-.9-.1-.4-.3-.9-.3-1.4 0-.5.1-1 .4-1.4.2-.4.5-.7.9-1 .4-.2.8-.3 1.3-.3.7 0 1.3.3 1.7.7.4.5.7 1.1.7 1.9v.4h-3.7c0 .9.6 1.4 1.6 1.4.3 0 .5 0 .8-.2.3 0 .6-.2.8-.4l.4.9-1 .5-1 .2Zm-.1-4.4c-.4 0-.7.1-1 .4-.2.2-.4.5-.4 1h2.6c0-.5-.2-.8-.4-1a1 1 0 0 0-.8-.4Zm5.6 4.4v-7.4h1.3v6.2h3.5v1.2h-4.8Zm7.8 0c-.5 0-1 0-1.4-.3-.5-.2-.8-.5-1-.9a2.9 2.9 0 0 1 0-2.8c.2-.4.5-.7.9-1 .4-.2.8-.3 1.3-.3.7 0 1.3.3 1.7.7.4.5.7 1.1.7 1.9v.4h-3.7c.1.9.6 1.4 1.6 1.4.3 0 .5 0 .8-.2.3 0 .6-.2.8-.4l.4.9-1 .5-1 .2Zm-.1-4.4c-.4 0-.7.1-1 .4-.2.2-.4.5-.4 1h2.6c0-.5-.2-.8-.4-1a1 1 0 0 0-.8-.4Zm4.6 4.5c-.3 0-.7-.1-1-.3l-.6-.5-.3-.9.3-.9c.2-.2.5-.3 1-.4l1.7-.2h.4v-.2c0-.4 0-.6-.2-.8l-.8-.2a3.8 3.8 0 0 0-1.8.5l-.4-.8.7-.4a4.2 4.2 0 0 1 1.5-.3c.8 0 1.3.2 1.7.6.4.3.6.8.6 1.6v3H459v-.8c0 .3-.3.5-.5.7-.3.2-.6.3-1 .3Zm.3-1c.4 0 .6 0 .9-.3.2-.2.3-.5.3-.9v-.2h-.3a4 4 0 0 0-1.4.1c-.3.1-.4.3-.4.6 0 .2 0 .4.2.5.2.2.4.3.7.3Zm3.4.9V248h1.3v1c.3-.7.8-1 1.6-1l.4-.1.1 1.1h-.7c-.9.2-1.3.6-1.3 1.4v2.8h-1.4Zm3.8 0V248h1.3v.8c.2-.3.4-.5.7-.6.3-.2.6-.3 1-.3 1.2 0 1.8.7 1.8 2.1v3.2h-1.3v-3.1c0-.4 0-.7-.2-.9-.2-.2-.4-.2-.7-.2-.4 0-.7 0-1 .3-.2.3-.3.6-.3 1v2.9H465Zm5.7-6.3v-1.2h1.5v1.2h-1.5Zm0 6.3V248h1.4v5.2h-1.3Zm2.4 0V248h1.3v.8c.2-.3.4-.5.7-.6.3-.2.6-.3 1-.3 1.2 0 1.8.7 1.8 2.1v3.2h-1.3v-3.1c0-.4 0-.7-.2-.9-.2-.2-.4-.2-.7-.2-.4 0-.7 0-1 .3-.2.3-.3.6-.3 1v2.9h-1.3Zm8.2 2-1.4-.2-1-.5.3-1c.3.3.6.4 1 .5l1 .1c1 0 1.4-.4 1.4-1.3v-.7l-.7.7a2 2 0 0 1-1 .2c-.5 0-.9 0-1.2-.3-.3-.2-.6-.5-.8-.9a3 3 0 0 1-.3-1.3c0-.5.1-1 .3-1.4l.8-.8c.3-.3.7-.4 1.2-.4.4 0 .7.1 1 .3l.7.7v-.9h1.3v4.6c0 .9-.3 1.5-.7 2-.4.3-1 .5-2 .5Zm0-3.2c.4 0 .7-.1 1-.4.2-.3.3-.6.3-1.1 0-.5-.1-.9-.4-1.2-.2-.2-.5-.4-1-.4-.3 0-.7.2-1 .4-.1.3-.3.7-.3 1.2s.2.8.4 1.1c.2.3.6.4 1 .4Z" fill="#E5E5E5"/>
  <path d="m406.4 270 1.6 1.5-1.6 1.6-1.6-1.6 1.6-1.6ZM409.3 267l1.6 1.6-1.6 1.6-1.6-1.6 1.6-1.6ZM412.2 270l1.6 1.5-1.6 1.6-1.5-1.6 1.5-1.6ZM409.3 272.8l1.6 1.6-1.6 1.6-1.6-1.6 1.6-1.6Z" stroke="#2078CC" stroke-linecap="round" stroke-linejoin="round" stroke-width=".9"/>
  <path d="M421.6 274h-1l-.9-.6.4-.7c.4.3 1 .5 1.5.5.3 0 .6 0 .8-.2.2-.2.2-.4.2-.7 0-.3 0-.5-.2-.7a1 1 0 0 0-.8-.3c-.4 0-.8.2-1 .5h-.7v-3.3h3.4v.8h-2.4v1.5c.2-.2.6-.3 1-.3.3 0 .6 0 .9.2l.6.6c.2.3.2.6.2 1 0 .3 0 .6-.2 1l-.7.6-1 .2Zm5 0v-5.5h.9l2 3.6 2-3.6h.8v5.5h-1v-3.7l-1.5 2.9h-.6l-1.6-3v3.8h-1Zm8.5 0c-.4 0-.7 0-1-.2-.3-.1-.5-.4-.7-.7-.2-.3-.2-.6-.2-1s0-.8.2-1c.2-.4.4-.6.7-.8l1-.2c.4 0 .8 0 1 .2.4.2.6.4.8.7l.2 1c0 .5 0 .8-.2 1.1-.2.3-.4.6-.7.7-.3.2-.7.3-1 .3Zm0-.7c.3 0 .6 0 .7-.3.2-.2.3-.5.3-1 0-.3 0-.7-.3-.9a.9.9 0 0 0-.7-.3c-.3 0-.5.1-.7.3-.2.2-.2.6-.2 1s0 .7.2 1l.7.2Zm4.3.8-.9-.3c-.3-.1-.4-.4-.6-.7l-.2-1c0-.4 0-.8.2-1 .2-.4.3-.6.6-.8l.9-.2c.3 0 .5 0 .7.2.2 0 .4.2.5.4v-2.2h1v5.5h-1v-.6c0 .2-.2.4-.4.5l-.8.2Zm.3-.8c.3 0 .5 0 .7-.3.2-.2.2-.5.2-1 0-.3 0-.7-.2-.9a.9.9 0 0 0-.7-.3c-.3 0-.6.1-.7.3-.2.2-.3.6-.3 1s0 .7.3 1l.7.2Zm4.3.8c-1 0-1.4-.6-1.4-1.6v-2.3h1v2.3c0 .3 0 .5.2.6 0 .1.2.2.5.2.2 0 .5 0 .6-.3.2-.1.3-.4.3-.7v-2.1h1v3.8h-1v-.6c-.3.5-.7.7-1.2.7Zm4.5 0c-.4 0-.8-.1-1-.4-.2-.2-.3-.6-.3-1v-4.2h1v4c0 .5.2.8.6.8H449v.7h-.6Zm3 0c-.4 0-.8-.1-1-.3-.4-.1-.6-.4-.8-.7-.2-.3-.3-.6-.3-1s.1-.8.3-1c.2-.4.4-.6.7-.8a2 2 0 0 1 1-.2c.5 0 1 .1 1.3.5.3.3.4.8.4 1.4v.3h-2.7c0 .7.5 1 1.2 1h.6l.6-.4.3.7a2 2 0 0 1-.7.3l-.8.2Zm0-3.4a1 1 0 0 0-.8.3c-.2.2-.3.4-.3.7h2l-.3-.7a.8.8 0 0 0-.7-.3Zm3.8 3.4-.9-.1a2 2 0 0 1-.7-.4l.3-.6a2.4 2.4 0 0 0 1.3.4l.6-.1.2-.4c0-.2-.2-.3-.5-.4l-.8-.2c-.7 0-1-.4-1-1 0-.3 0-.5.2-.7l.6-.4.8-.1h.8l.7.4-.3.7-.5-.3-.6-.1a1 1 0 0 0-.6.1l-.2.4c0 .2.1.3.4.4l.8.1c.4 0 .6.2.8.4.2.1.3.4.3.7 0 .3-.2.6-.5.9a2 2 0 0 1-1.2.3Z" fill="#D2D2D6"/>
  <defs>
    <filter color-interpolation-filters="sRGB" filterUnits="userSpaceOnUse" height="398.8" id="sec-section-b" width="271.7" x="-2.3" y="-17.7">
      <feFlood flood-opacity="0" result="BackgroundImageFix"/>
      <feGaussianBlur in="BackgroundImageFix" stdDeviation="5"/>
      <feComposite in2="SourceAlpha" operator="in" result="effect1_backgroundBlur_1613_18501"/>
      <feColorMatrix in="SourceAlpha" result="hardAlpha" values="0 0 0 0 0 0 0 0 0 0 0 0 0 0 0 0 0 0 127 0"/>
      <feOffset dy="14.7"/>
      <feGaussianBlur stdDeviation="16.2"/>
      <feComposite in2="hardAlpha" operator="out"/>
      <feColorMatrix values="0 0 0 0 0 0 0 0 0 0 0 0 0 0 0 0 0 0 0.25 0"/>
      <feBlend in2="effect1_backgroundBlur_1613_18501" result="effect2_dropShadow_1613_18501"/>
      <feBlend in="SourceGraphic" in2="effect2_dropShadow_1613_18501" result="shape"/>
    </filter>
    <filter color-interpolation-filters="sRGB" filterUnits="userSpaceOnUse" height="398.8" id="sec-section-d" width="477.8" x="-2.4" y="-17.7">
      <feFlood flood-opacity="0" result="BackgroundImageFix"/>
      <feGaussianBlur in="BackgroundImageFix" stdDeviation="5"/>
      <feComposite in2="SourceAlpha" operator="in" result="effect1_backgroundBlur_1613_18501"/>
      <feColorMatrix in="SourceAlpha" result="hardAlpha" values="0 0 0 0 0 0 0 0 0 0 0 0 0 0 0 0 0 0 127 0"/>
      <feOffset dy="14.7"/>
      <feGaussianBlur stdDeviation="16.2"/>
      <feComposite in2="hardAlpha" operator="out"/>
      <feColorMatrix values="0 0 0 0 0 0 0 0 0 0 0 0 0 0 0 0 0 0 0.25 0"/>
      <feBlend in2="effect1_backgroundBlur_1613_18501" result="effect2_dropShadow_1613_18501"/>
      <feBlend in="SourceGraphic" in2="effect2_dropShadow_1613_18501" result="shape"/>
    </filter>
    <filter color-interpolation-filters="sRGB" filterUnits="userSpaceOnUse" height="13.6" id="sec-section-e" width="120.4" x=".8" y="75.4">
      <feFlood flood-opacity="0" result="BackgroundImageFix"/>
      <feColorMatrix in="SourceAlpha" result="hardAlpha" values="0 0 0 0 0 0 0 0 0 0 0 0 0 0 0 0 0 0 127 0"/>
      <feOffset dy="4.2"/>
      <feGaussianBlur stdDeviation="2.1"/>
      <feComposite in2="hardAlpha" operator="out"/>
      <feColorMatrix values="0 0 0 0 0 0 0 0 0 0 0 0 0 0 0 0 0 0 0.06 0"/>
      <feBlend in2="BackgroundImageFix" result="effect1_dropShadow_1613_18501"/>
      <feBlend in="SourceGraphic" in2="effect1_dropShadow_1613_18501" result="shape"/>
    </filter>
    <filter color-interpolation-filters="sRGB" filterUnits="userSpaceOnUse" height="17.8" id="sec-section-f" width="17.8" x=".8" y="105.7">
      <feFlood flood-opacity="0" result="BackgroundImageFix"/>
      <feColorMatrix in="SourceAlpha" result="hardAlpha" values="0 0 0 0 0 0 0 0 0 0 0 0 0 0 0 0 0 0 127 0"/>
      <feOffset dy="4.2"/>
      <feGaussianBlur stdDeviation="2.1"/>
      <feComposite in2="hardAlpha" operator="out"/>
      <feColorMatrix values="0 0 0 0 0 0 0 0 0 0 0 0 0 0 0 0 0 0 0.25 0"/>
      <feBlend in2="BackgroundImageFix" result="effect1_dropShadow_1613_18501"/>
      <feBlend in="SourceGraphic" in2="effect1_dropShadow_1613_18501" result="shape"/>
    </filter>
    <filter color-interpolation-filters="sRGB" filterUnits="userSpaceOnUse" height="189.7" id="sec-section-g" width="144.5" x="405" y="124.5">
      <feFlood flood-opacity="0" result="BackgroundImageFix"/>
      <feColorMatrix in="SourceAlpha" result="hardAlpha" values="0 0 0 0 0 0 0 0 0 0 0 0 0 0 0 0 0 0 127 0"/>
      <feOffset dx="4.2" dy="5.2"/>
      <feGaussianBlur stdDeviation="6.3"/>
      <feComposite in2="hardAlpha" operator="out"/>
      <feColorMatrix values="0 0 0 0 0 0 0 0 0 0 0 0 0 0 0 0 0 0 0.25 0"/>
      <feBlend in2="BackgroundImageFix" result="effect1_dropShadow_1613_18501"/>
      <feBlend in="SourceGraphic" in2="effect1_dropShadow_1613_18501" result="shape"/>
    </filter>
    <filter color-interpolation-filters="sRGB" filterUnits="userSpaceOnUse" height="215.4" id="sec-section-i" width="181.7" x="382.2" y="126.4">
      <feFlood flood-opacity="0" result="BackgroundImageFix"/>
      <feGaussianBlur in="BackgroundImageFix" stdDeviation="4.8"/>
      <feComposite in2="SourceAlpha" operator="in" result="effect1_backgroundBlur_1613_18501"/>
      <feColorMatrix in="SourceAlpha" result="hardAlpha" values="0 0 0 0 0 0 0 0 0 0 0 0 0 0 0 0 0 0 127 0"/>
      <feOffset dy="14.2"/>
      <feGaussianBlur stdDeviation="15.6"/>
      <feComposite in2="hardAlpha" operator="out"/>
      <feColorMatrix values="0 0 0 0 0 0 0 0 0 0 0 0 0 0 0 0 0 0 0.25 0"/>
      <feBlend in2="effect1_backgroundBlur_1613_18501" result="effect2_dropShadow_1613_18501"/>
      <feBlend in="SourceGraphic" in2="effect2_dropShadow_1613_18501" result="shape"/>
    </filter>
    <filter color-interpolation-filters="sRGB" filterUnits="userSpaceOnUse" height="202.1" id="sec-section-k" width="152.9" x="389.3" y="122.5">
      <feFlood flood-opacity="0" result="BackgroundImageFix"/>
      <feColorMatrix in="SourceAlpha" result="hardAlpha" values="0 0 0 0 0 0 0 0 0 0 0 0 0 0 0 0 0 0 127 0"/>
      <feOffset dx="7.3" dy="9.4"/>
      <feGaussianBlur stdDeviation="5.8"/>
      <feComposite in2="hardAlpha" operator="out"/>
      <feColorMatrix values="0 0 0 0 0 0 0 0 0 0 0 0 0 0 0 0 0 0 0.35 0"/>
      <feBlend in2="BackgroundImageFix" result="effect1_dropShadow_1613_18501"/>
      <feBlend in="SourceGraphic" in2="effect1_dropShadow_1613_18501" result="shape"/>
    </filter>
    <filter color-interpolation-filters="sRGB" filterUnits="userSpaceOnUse" height="234.3" id="sec-section-m" width="197.6" x="359.5" y="118.7">
      <feFlood flood-opacity="0" result="BackgroundImageFix"/>
      <feGaussianBlur in="BackgroundImageFix" stdDeviation="5.2"/>
      <feComposite in2="SourceAlpha" operator="in" result="effect1_backgroundBlur_1613_18501"/>
      <feColorMatrix in="SourceAlpha" result="hardAlpha" values="0 0 0 0 0 0 0 0 0 0 0 0 0 0 0 0 0 0 127 0"/>
      <feOffset dy="15.4"/>
      <feGaussianBlur stdDeviation="17"/>
      <feComposite in2="hardAlpha" operator="out"/>
      <feColorMatrix values="0 0 0 0 0 0 0 0 0 0 0 0 0 0 0 0 0 0 0.25 0"/>
      <feBlend in2="effect1_backgroundBlur_1613_18501" result="effect2_dropShadow_1613_18501"/>
      <feBlend in="SourceGraphic" in2="effect2_dropShadow_1613_18501" result="shape"/>
    </filter>
    <filter color-interpolation-filters="sRGB" filterUnits="userSpaceOnUse" height="45" id="sec-section-o" width="45" x="498.1" y="251.3">
      <feFlood flood-opacity="0" result="BackgroundImageFix"/>
      <feColorMatrix in="SourceAlpha" result="hardAlpha" values="0 0 0 0 0 0 0 0 0 0 0 0 0 0 0 0 0 0 127 0"/>
      <feOffset dy="4.2"/>
      <feGaussianBlur stdDeviation="2.1"/>
      <feComposite in2="hardAlpha" operator="out"/>
      <feColorMatrix values="0 0 0 0 0 0 0 0 0 0 0 0 0 0 0 0 0 0 0.25 0"/>
      <feBlend in2="BackgroundImageFix" result="effect1_dropShadow_1613_18501"/>
      <feBlend in="SourceGraphic" in2="effect1_dropShadow_1613_18501" result="shape"/>
    </filter>
    <linearGradient gradientUnits="userSpaceOnUse" id="sec-section-c" x1="134" x2="133.4" y1="-50" y2="530">
      <stop stop-color="#00162B"/>
      <stop offset="1" stop-color="#0662B9" stop-opacity="0"/>
    </linearGradient>
    <linearGradient gradientUnits="userSpaceOnUse" id="sec-section-j" x1="472.9" x2="472.9" y1="214.6" y2="397.5">
      <stop stop-color="#00162B"/>
      <stop offset="1" stop-color="#00162B" stop-opacity="0"/>
    </linearGradient>
    <linearGradient gradientUnits="userSpaceOnUse" id="sec-section-n" x1="458.2" x2="458.2" y1="214.6" y2="413.6">
      <stop stop-color="#00162B"/>
      <stop offset="1" stop-color="#00162B" stop-opacity="0"/>
    </linearGradient>
    <clipPath id="sec-section-a">
      <rect fill="#fff" height="334" rx="3.2" width="413.1" x="30.1"/>
    </clipPath>
    <clipPath id="sec-section-h">
      <rect fill="#fff" height="164.6" rx="3.9" width="119.4" x="413.3" y="131.8"/>
    </clipPath>
    <clipPath id="sec-section-l">
      <rect fill="#fff" height="179" rx="4.2" width="129.8" x="393.4" y="124.6"/>
    </clipPath>
  </defs>
</svg>